<?xml version="1.0" standalone="no"?>
<!DOCTYPE svg PUBLIC "-//W3C//DTD SVG 20010904//EN"
 "http://www.w3.org/TR/2001/REC-SVG-20010904/DTD/svg10.dtd">
<svg version="1.0" xmlns="http://www.w3.org/2000/svg"
 width="16.000000pt" height="16.000000pt" viewBox="0 0 16.000000 16.000000"
 preserveAspectRatio="xMidYMid meet">
<metadata>
Created by potrace 1.11, written by Peter Selinger 2001-2013
</metadata>
<g transform="translate(0.000000,16.000000) scale(0.002286,-0.002286)"
fill="#000000" stroke="none">
<path d="M3397 6754 c-1 -1 -57 -5 -125 -8 -67 -4 -128 -9 -135 -11 -6 -2 -32
-6 -57 -9 -810 -101 -1595 -541 -2115 -1186 -146 -182 -280 -383 -360 -540
-77 -152 -99 -202 -148 -325 -49 -122 -117 -329 -131 -397 -3 -13 -16 -75 -30
-138 -13 -63 -27 -133 -30 -155 -3 -22 -10 -73 -16 -114 -28 -203 -31 -582 -5
-786 9 -75 20 -145 29 -190 2 -11 7 -40 11 -65 38 -246 198 -694 334 -935 13
-22 37 -65 54 -95 196 -349 538 -732 880 -984 277 -204 554 -351 877 -466 161
-57 393 -118 520 -136 19 -2 44 -7 56 -9 11 -2 45 -7 75 -10 30 -4 60 -8 67
-10 20 -7 267 -19 377 -19 424 0 817 76 1225 237 119 46 314 141 409 199 34
21 65 38 67 38 9 0 193 126 289 198 475 357 863 874 1083 1442 76 195 152 482
177 665 2 17 9 62 15 102 31 217 31 608 0 818 -5 33 -11 82 -15 109 -3 27 -8
52 -9 55 -2 3 -7 29 -10 56 -22 167 -129 502 -236 738 -472 1045 -1479 1780
-2620 1911 -132 15 -492 30 -503 20z m393 -118 c552 -48 1085 -240 1540 -555
52 -36 102 -71 110 -78 8 -6 53 -42 100 -80 111 -88 338 -314 433 -429 268
-328 462 -684 587 -1079 54 -171 91 -345 124 -575 33 -235 24 -672 -19 -891
-3 -13 -8 -44 -11 -69 -3 -25 -8 -48 -10 -51 -2 -3 -6 -21 -9 -40 -45 -255
-210 -682 -363 -934 -30 -49 -60 -99 -66 -110 -18 -32 -75 -114 -144 -205
-249 -328 -565 -610 -922 -822 -672 -400 -1458 -533 -2251 -383 -238 45 -549
153 -792 275 -325 164 -573 344 -832 604 -159 160 -165 166 -273 308 -72 94
-202 283 -202 294 0 2 -11 22 -25 44 -29 46 -132 247 -157 305 -9 22 -26 61
-37 88 -56 131 -137 388 -157 497 -3 14 -9 41 -14 60 -7 29 -22 117 -45 270
-31 207 -24 618 15 860 6 36 13 81 16 100 11 72 64 281 100 391 157 489 409
903 769 1265 275 276 555 477 886 637 289 139 623 240 934 282 22 3 54 7 70
10 17 2 73 7 125 11 52 3 96 8 98 9 5 4 354 -3 422 -9z"/>
<path d="M4187 5963 c-225 -51 -455 -297 -546 -586 -53 -169 -79 -361 -76
-562 1 -82 8 -181 15 -220 50 -286 166 -465 350 -540 59 -24 206 -29 280 -9
316 84 678 509 726 851 10 69 11 201 3 253 -4 25 -10 67 -13 94 -9 67 -62 228
-99 301 -89 177 -207 302 -353 373 -108 53 -195 66 -287 45z"/>
<path d="M2531 5845 c-276 -66 -488 -341 -555 -720 -17 -97 -13 -334 7 -415
65 -257 331 -571 592 -699 93 -45 103 -49 170 -65 227 -54 434 47 543 267 75
150 102 298 97 517 -5 162 -6 175 -36 314 -23 109 -68 244 -107 321 -67 134
-193 286 -306 371 -57 43 -176 110 -176 99 0 -2 -12 0 -26 5 -43 17 -145 19
-203 5z"/>
<path d="M5152 4280 c-23 -5 -71 -23 -105 -40 -211 -107 -386 -328 -448 -565
-63 -241 48 -594 283 -898 45 -59 186 -195 209 -202 10 -4 19 -10 19 -14 0 -5
33 -23 73 -42 65 -30 81 -33 162 -33 101 0 140 12 215 70 250 191 341 749 198
1219 -68 224 -198 404 -343 476 -54 27 -80 33 -143 35 -42 2 -96 -1 -120 -6z"/>
<path d="M1613 4231 c-105 -36 -195 -128 -274 -280 -43 -82 -98 -238 -115
-324 -2 -10 -5 -26 -8 -35 -32 -107 -46 -472 -22 -582 3 -14 11 -50 17 -80 29
-142 101 -274 184 -340 118 -94 247 -144 375 -144 47 0 99 3 115 6 75 14 197
74 252 123 165 148 252 292 299 494 21 90 24 114 25 207 2 158 -29 295 -101
449 -113 241 -306 422 -531 501 -81 28 -145 30 -216 5z"/>
<path d="M3465 3108 c-156 -13 -269 -54 -382 -139 -35 -27 -135 -120 -221
-207 -86 -87 -182 -174 -213 -195 -63 -41 -187 -100 -359 -172 -126 -53 -226
-104 -280 -143 -183 -133 -268 -317 -262 -567 3 -135 73 -290 173 -379 140
-128 398 -229 689 -270 224 -33 355 -42 713 -51 128 -4 288 -8 357 -10 148 -5
676 -6 740 -1 85 7 205 18 225 22 11 2 40 7 65 10 141 19 326 78 438 140 117
65 237 208 258 307 18 86 22 118 19 186 -4 88 -12 153 -25 187 -5 13 -7 24 -5
24 9 0 -43 129 -71 175 -33 57 -125 153 -184 192 -70 47 -118 69 -352 163
-243 98 -338 152 -418 237 -57 60 -65 70 -151 188 -28 39 -67 87 -88 108 -112
118 -301 186 -557 201 -16 0 -65 -2 -109 -6z"/>
</g>
</svg>
