<?xml version="1.0" encoding="UTF-8" standalone="no"?>
<!-- Created with Inkscape (http://www.inkscape.org/) -->

<svg
   xmlns:dc="http://purl.org/dc/elements/1.1/"
   xmlns:cc="http://creativecommons.org/ns#"
   xmlns:rdf="http://www.w3.org/1999/02/22-rdf-syntax-ns#"
   xmlns:svg="http://www.w3.org/2000/svg"
   xmlns="http://www.w3.org/2000/svg"
   xmlns:sodipodi="http://sodipodi.sourceforge.net/DTD/sodipodi-0.dtd"
   xmlns:inkscape="http://www.inkscape.org/namespaces/inkscape"
   width="64"
   height="64"
   id="svg3352"
   version="1.1"
   inkscape:version="0.91 r13725"
   viewBox="0 0 64 64"
   sodipodi:docname="drawing.svg">
  <defs
     id="defs3354" />
  <sodipodi:namedview
     id="base"
     pagecolor="#ffffff"
     bordercolor="#666666"
     borderopacity="1.0"
     inkscape:pageopacity="0.0"
     inkscape:pageshadow="2"
     inkscape:zoom="5.5"
     inkscape:cx="32"
     inkscape:cy="31.339819"
     inkscape:current-layer="layer1"
     showgrid="true"
     inkscape:document-units="px"
     inkscape:grid-bbox="true"
     inkscape:window-width="1366"
     inkscape:window-height="703"
     inkscape:window-x="0"
     inkscape:window-y="0"
     inkscape:window-maximized="1" />
  <metadata
     id="metadata3357">
    <rdf:RDF>
      <cc:Work
         rdf:about="">
        <dc:format>image/svg+xml</dc:format>
        <dc:type
           rdf:resource="http://purl.org/dc/dcmitype/StillImage" />
        <dc:title></dc:title>
      </cc:Work>
    </rdf:RDF>
  </metadata>
  <g
     id="layer1"
     inkscape:label="Layer 1"
     inkscape:groupmode="layer">
    <g
       transform="matrix(0.32502304,0,0,0.32502304,-118.33874,-110.49193)"
       inkscape:label="Capa 1"
       id="layer1-6">
      <path
         inkscape:connector-curvature="0"
         style="fill:#000000;stroke:#000000;stroke-width:0.85056001px"
         sodipodi:nodetypes="sasaaaas"
         d="m 413.63,487.65 c -1.0797,21.79 33.58,20.845 51.854,21.29 17.684,0.4311 51.631,2.9619 50.843,-18.141 -0.80021,-21.447 -19.984,-17.526 -29.355,-26.831 -3.7529,-3.7264 -5.8197,-9.257 -10.742,-11.594 -5.8529,-2.7789 -13.451,-3.527 -19.717,-1.6398 -6.7308,2.0271 -10.674,8.5073 -15.856,12.915 -9.1961,7.8213 -26.153,6.357 -27.027,24 z"
         id="path3865" />
      <path
         inkscape:connector-curvature="0"
         style="fill:#090000;stroke:#000000;stroke-width:1.19089997px"
         sodipodi:nodetypes="aaaa"
         d="m 516.89,418.13 c -9.7621,-5.9492 -23.013,8.0032 -23.413,18.965 -0.42399,11.594 12.432,31.826 22.961,29.248 14.524,-3.5567 14.695,-39.533 0.45243,-48.213 z"
         id="path3867" />
      <path
         d="m 403.94,463.79 c 12.576,9.5832 24.971,-0.57709 28.052,-12.914 3.6111,-14.456 -5.5303,-28.993 -17.386,-32.611 -15.391,-4.6963 -22.946,36.167 -10.667,45.525 z"
         inkscape:connector-curvature="0"
         style="fill:#090000;stroke:#000000;stroke-width:1.20570004px"
         sodipodi:nodetypes="ssss"
         id="path3869" />
      <path
         inkscape:connector-curvature="0"
         style="fill:#090000;stroke:#000000;stroke-width:1.44589996px"
         sodipodi:nodetypes="asaaa"
         d="m 468.32,382.73 c -5.3653,12.85 -5.2467,36.256 7.5802,39.74 10.828,2.9414 23.66,-11.483 26.027,-21.805 2.6316,-11.48 -3.7306,-28.808 -16.279,-31.005 -7.177,-1.2564 -14.693,6.7595 -17.328,13.07 z"
         id="path3871" />
      <path
         d="m 455.4,387.73 c 4.9812,11.704 5.5261,32.245 -6.2679,37.085 -10.624,4.3596 -25.169,-9.3212 -28.251,-19.495 -3.404,-11.237 2.0435,-29.577 14.885,-32.337 8.3596,-1.7971 16.616,7.6574 19.634,14.747 z"
         inkscape:connector-curvature="0"
         style="fill:#090000;stroke:#000000;stroke-width:1.37619996px"
         sodipodi:nodetypes="aaaaa"
         id="path3873" />
    </g>
    <circle
       style="fill:none;fill-opacity:1;stroke:#000000;stroke-opacity:1"
       id="path3399"
       cx="32.18182"
       cy="32.363636"
       r="29.636364" />
  </g>
</svg>
